<?xml version="1.0" standalone="no"?>
<!DOCTYPE svg PUBLIC "-//W3C//DTD SVG 20010904//EN"
 "http://www.w3.org/TR/2001/REC-SVG-20010904/DTD/svg10.dtd">
<svg version="1.0" xmlns="http://www.w3.org/2000/svg"
 width="659.000000pt" height="515.000000pt" viewBox="0 0 659.000000 515.000000"
 preserveAspectRatio="xMidYMid meet">
<metadata>
Created by potrace 1.15, written by Peter Selinger 2001-2017
</metadata>
<g transform="translate(0.000000,515.000000) scale(0.100000,-0.100000)"
fill="#000000" stroke="none">
<path d="M550 5140 c0 -6 -11 -8 -25 -4 -16 4 -25 2 -25 -6 0 -7 -8 -9 -20 -5
-12 4 -20 2 -20 -5 0 -7 -7 -10 -15 -6 -8 3 -15 1 -15 -4 0 -5 -7 -7 -15 -4
-8 4 -15 1 -15 -6 0 -6 -4 -8 -10 -5 -5 3 -10 1 -10 -5 0 -6 -4 -9 -9 -6 -5 3
-14 -1 -21 -9 -7 -8 -16 -13 -20 -10 -5 3 -16 -3 -26 -12 -9 -9 -22 -18 -29
-19 -15 -2 -120 -84 -120 -93 0 -4 -14 -20 -31 -37 -16 -16 -33 -37 -37 -47
-3 -9 -11 -17 -18 -17 -6 0 -9 -7 -5 -15 3 -8 1 -15 -5 -15 -6 0 -9 -7 -5 -15
3 -9 0 -15 -8 -15 -9 0 -12 -7 -9 -20 3 -12 0 -20 -7 -20 -7 0 -9 -8 -5 -20 5
-14 2 -20 -9 -20 -19 0 -22 -26 -3 -33 9 -3 9 -11 0 -39 -19 -51 -19 -4055 0
-4106 9 -28 9 -36 0 -39 -19 -7 -16 -33 3 -33 11 0 14 -6 9 -20 -4 -12 -2 -20
5 -20 7 0 10 -8 7 -20 -3 -13 0 -20 9 -20 8 0 11 -6 8 -15 -4 -8 -1 -15 5 -15
6 0 8 -7 5 -15 -4 -8 -1 -15 5 -15 7 0 15 -8 18 -17 4 -10 21 -31 37 -47 17
-17 31 -33 31 -37 0 -9 105 -91 120 -93 7 -1 20 -10 29 -19 10 -9 21 -15 26
-12 4 3 13 -2 20 -10 7 -8 16 -12 21 -9 5 3 9 0 9 -6 0 -6 4 -8 10 -5 5 3 10
1 10 -5 0 -7 7 -10 15 -6 8 3 15 1 15 -4 0 -5 7 -7 15 -4 8 4 15 1 15 -6 0 -7
8 -9 20 -5 12 4 20 2 20 -5 0 -8 9 -10 25 -6 14 4 25 2 25 -4 0 -6 903 -10
2745 -10 1851 0 2745 3 2745 10 0 6 11 8 25 4 16 -4 25 -2 25 6 0 7 8 9 20 5
12 -4 20 -2 20 5 0 7 7 10 15 6 8 -3 15 -1 15 4 0 5 7 7 15 4 8 -4 15 -1 15 6
0 6 5 8 10 5 6 -3 10 -1 10 6 0 7 3 9 7 6 3 -4 15 0 25 10 10 9 18 12 18 8 0
-4 9 0 20 10 12 11 27 20 34 21 17 2 120 82 125 97 2 6 16 22 30 36 15 15 30
34 34 44 3 9 11 17 16 17 5 0 12 13 16 30 4 16 10 30 15 30 4 0 6 9 3 20 -3
12 0 20 7 20 7 0 9 8 5 20 -5 14 -2 20 9 20 19 0 22 26 4 33 -10 3 -10 11 0
39 9 27 12 463 12 2053 0 1590 -3 2026 -12 2053 -10 28 -10 36 0 39 18 7 15
33 -4 33 -11 0 -14 6 -9 20 4 12 2 20 -5 20 -7 0 -10 8 -7 20 3 11 1 20 -3 20
-5 0 -11 13 -15 29 -3 16 -13 32 -21 35 -8 3 -14 10 -14 16 0 6 -13 23 -29 39
-15 15 -30 32 -32 38 -5 15 -108 95 -125 97 -7 1 -22 10 -34 21 -11 10 -20 14
-20 10 0 -4 -8 -1 -18 8 -10 10 -22 14 -25 10 -4 -3 -7 -1 -7 6 0 7 -5 9 -10
6 -6 -3 -10 -1 -10 5 0 7 -7 10 -15 6 -8 -3 -15 -1 -15 4 0 5 -7 7 -15 4 -8
-4 -15 -1 -15 6 0 7 -8 9 -20 5 -12 -4 -20 -2 -20 5 0 8 -9 10 -25 6 -14 -4
-25 -2 -25 4 0 7 -894 10 -2745 10 -1842 0 -2745 -4 -2745 -10z m4769 -752
c43 -21 90 -63 91 -81 0 -5 7 -23 14 -40 14 -30 24 -63 61 -204 9 -32 19 -65
24 -73 4 -8 14 -40 21 -70 7 -30 16 -60 21 -66 5 -6 6 -14 2 -17 -3 -4 -1 -12
4 -19 6 -7 16 -38 23 -68 7 -30 16 -59 20 -65 5 -5 14 -38 20 -73 7 -34 17
-65 21 -68 15 -9 10 -69 -7 -105 -22 -45 -43 -68 -77 -85 -32 -17 -1078 -370
-1122 -378 -45 -10 -135 11 -177 41 -47 32 -161 138 -390 361 l-96 94 -119
-47 c-231 -92 -534 -257 -718 -391 -67 -49 -85 -63 -227 -179 -151 -123 -360
-351 -462 -505 -20 -30 -39 -59 -44 -65 -4 -5 -17 -27 -29 -47 l-22 -37 92
-58 c295 -184 479 -307 507 -340 21 -24 25 -38 25 -93 0 -63 -3 -69 -88 -216
-48 -84 -87 -154 -87 -157 0 -3 -28 -54 -62 -114 -34 -59 -81 -146 -106 -193
-24 -47 -65 -120 -90 -163 -41 -68 -53 -81 -101 -104 -43 -22 -68 -27 -120
-26 -64 0 -996 164 -1047 183 -47 18 -97 64 -115 108 -21 49 -26 190 -9 264 5
24 16 97 24 163 8 66 24 163 35 215 25 113 25 112 32 125 4 6 12 34 19 64 7
30 19 66 26 80 8 14 14 33 14 41 0 8 9 33 20 55 11 22 19 44 20 48 0 17 138
306 151 317 3 3 23 37 44 75 69 123 184 286 304 430 96 116 307 331 394 404
230 192 275 226 407 311 340 219 633 362 1080 527 359 133 944 241 1415 263
241 11 326 6 384 -22z"/>
</g>
</svg>
